<svg xmlns="http://www.w3.org/2000/svg" xmlns:xlink="http://www.w3.org/1999/xlink" width="500" zoomAndPan="magnify" viewBox="0 0 375 374.999991" height="500" preserveAspectRatio="xMidYMid meet" version="1.0"><defs><clipPath id="b681997f94"><path d="M 3 54.375 L 372 54.375 L 372 320.625 L 3 320.625 Z M 3 54.375 " clip-rule="nonzero"/></clipPath></defs><g clip-path="url(#b681997f94)"><path fill="#ffffff" d="M 364.007812 172.761719 L 197.367188 58.058594 C 191.898438 54.257812 184.765625 53.78125 178.941406 56.871094 C 173.117188 59.960938 169.433594 66.023438 169.433594 72.679688 L 169.433594 153.148438 L 31.195312 58.058594 C 25.730469 54.257812 18.597656 53.78125 12.773438 56.871094 C 6.949219 59.960938 3.265625 66.023438 3.265625 72.679688 L 3.265625 302.320312 C 3.265625 308.976562 6.949219 315.039062 12.773438 318.128906 C 15.386719 319.4375 18.242188 320.148438 21.09375 320.148438 C 24.660156 320.148438 28.226562 319.078125 31.195312 316.941406 L 169.433594 221.851562 L 169.433594 302.320312 C 169.433594 308.976562 173.117188 315.039062 178.941406 318.128906 C 181.558594 319.4375 184.410156 320.148438 187.261719 320.148438 C 190.710938 320.148438 194.273438 319.078125 197.367188 316.941406 L 364.007812 202.238281 C 368.882812 198.910156 371.734375 193.324219 371.734375 187.5 C 371.734375 181.675781 368.882812 176.089844 364.007812 172.761719 Z M 364.007812 172.761719 " fill-opacity="1" fill-rule="nonzero"/></g></svg>