<svg xmlns="http://www.w3.org/2000/svg" xmlns:xlink="http://www.w3.org/1999/xlink" width="500" zoomAndPan="magnify" viewBox="0 0 375 374.999991" height="500" preserveAspectRatio="xMidYMid meet" version="1.0"><defs><clipPath id="0ff102c45d"><path d="M 45.75 27 L 329.25 27 L 329.25 349 L 45.75 349 Z M 45.75 27 " clip-rule="nonzero"/></clipPath></defs><g clip-path="url(#0ff102c45d)"><path fill="#ffffff" d="M 319.535156 170.515625 L 75.875 29.847656 C 69.683594 26.277344 62.078125 26.277344 55.894531 29.847656 C 49.710938 33.410156 45.90625 40.003906 45.90625 47.148438 L 45.90625 328.515625 C 45.90625 335.65625 49.710938 342.25 55.894531 345.816406 C 58.988281 347.625 62.4375 348.496094 65.886719 348.496094 C 69.335938 348.496094 72.785156 347.597656 75.875 345.816406 L 319.535156 205.144531 C 325.734375 201.574219 329.519531 194.980469 329.519531 187.835938 C 329.519531 180.695312 325.71875 174.09375 319.535156 170.515625 Z M 319.535156 170.515625 " fill-opacity="1" fill-rule="nonzero"/></g></svg>