<svg xmlns="http://www.w3.org/2000/svg" xmlns:xlink="http://www.w3.org/1999/xlink" width="500" zoomAndPan="magnify" viewBox="0 0 375 374.999991" height="500" preserveAspectRatio="xMidYMid meet" version="1.0"><defs><clipPath id="acf9459a96"><path d="M 3 54.375 L 372 54.375 L 372 320.625 L 3 320.625 Z M 3 54.375 " clip-rule="nonzero"/></clipPath></defs><g clip-path="url(#acf9459a96)"><path fill="#ffffff" d="M 10.992188 172.761719 L 177.632812 58.058594 C 183.101562 54.257812 190.234375 53.78125 196.058594 56.871094 C 201.882812 59.960938 205.566406 66.023438 205.566406 72.679688 L 205.566406 153.148438 L 343.804688 58.058594 C 349.269531 54.257812 356.402344 53.78125 362.226562 56.871094 C 368.050781 59.960938 371.734375 66.023438 371.734375 72.679688 L 371.734375 302.320312 C 371.734375 308.976562 368.050781 315.039062 362.226562 318.128906 C 359.613281 319.4375 356.757812 320.148438 353.90625 320.148438 C 350.339844 320.148438 346.773438 319.078125 343.804688 316.941406 L 205.566406 221.851562 L 205.566406 302.320312 C 205.566406 308.976562 201.882812 315.039062 196.058594 318.128906 C 193.441406 319.4375 190.589844 320.148438 187.738281 320.148438 C 184.289062 320.148438 180.726562 319.078125 177.632812 316.941406 L 10.992188 202.238281 C 6.117188 198.910156 3.265625 193.324219 3.265625 187.5 C 3.265625 181.675781 6.117188 176.089844 10.992188 172.761719 Z M 10.992188 172.761719 " fill-opacity="1" fill-rule="nonzero"/></g></svg>